<?xml version="1.0" encoding="UTF-8"?>
<svg version="1.1" xmlns="http://www.w3.org/2000/svg" width="512" height="512">
<path d="M0 0 C12.43232648 5.58263241 23.5104102 12.43349017 33.68066406 21.58032227 C34.45925781 22.27641602 35.23785156 22.97250977 36.04003906 23.68969727 C52.23741513 38.993425 62.11596373 60.69875709 62.88378906 83.00610352 C63.10334262 96.95060594 61.70255606 110.20315974 57.68066406 123.58032227 C58.4940625 123.02344727 59.30746094 122.46657227 60.14550781 121.89282227 C82.50158641 106.87724896 106.1622699 98.44617661 133.33837891 103.61254883 C147.50360939 106.77947784 160.47673319 113.42389338 171.68066406 122.58032227 C172.19048828 122.98621582 172.7003125 123.39210937 173.22558594 123.81030273 C184.67904896 132.94351139 200.91186197 146.27391599 205.68066406 160.58032227 C206.21528984 166.99583155 205.55665844 170.37832982 201.68066406 175.58032227 C197.2019752 178.73576215 193.01634005 179.23003627 187.68066406 178.58032227 C183.45262498 177.41156881 179.36268318 175.89469948 175.24316406 174.39282227 C158.13321855 168.41009396 139.42705367 163.25995058 121.11816406 163.51782227 C120.27125 163.5268457 119.42433594 163.53586914 118.55175781 163.54516602 C117.93429688 163.55676758 117.31683594 163.56836914 116.68066406 163.58032227 C117.43089844 163.92063477 118.18113281 164.26094727 118.95410156 164.61157227 C138.78346441 174.00179951 150.77647768 188.92196559 159.02441406 208.82250977 C164.43011477 224.58913683 165.53933174 242.04163611 164.68066406 258.58032227 C164.64875977 259.26835937 164.61685547 259.95639648 164.58398438 260.6652832 C163.9274327 272.1633549 163.9274327 272.1633549 159.61816406 276.39282227 C155.58504886 279.11517503 151.5005693 279.93278334 146.68066406 279.58032227 C141.70918417 278.14624153 139.68071834 275.66902399 137.13378906 271.25219727 C136.01807729 269.20072724 134.90375641 267.14850072 133.79003906 265.09594727 C125.65213508 250.22218928 116.36169839 236.89049669 104.68066406 224.58032227 C103.60891611 223.31727834 102.54512939 222.0473896 101.49316406 220.76782227 C99.49546969 218.39656903 97.37550955 216.37844708 95.00488281 214.38110352 C94.38057373 213.85299072 93.75626465 213.32487793 93.11303711 212.78076172 C92.640354 212.3846167 92.1676709 211.98847168 91.68066406 211.58032227 C91.96941406 212.69407227 92.25816406 213.80782227 92.55566406 214.95532227 C98.66805534 239.58434371 94.58115937 258.42999855 82.25097656 280.09204102 C75.69266837 290.58921478 64.92653511 304.95738674 53.68066406 310.58032227 C48.64395199 311.13291118 44.75925503 311.11961775 40.18066406 308.83032227 C37.36116666 306.2927746 35.92871697 304.36274099 35.40185547 300.5769043 C35.41709198 294.58064372 36.52346614 289.23362168 38.05566406 283.45532227 C43.88365489 259.94302814 45.10377184 235.35207969 39.68066406 211.58032227 C39.35066406 211.25032227 39.02066406 210.92032227 38.68066406 210.58032227 C38.39570068 211.57938599 38.39570068 211.57938599 38.10498047 212.59863281 C29.06007262 244.13234863 18.16023515 274.66675356 4.68066406 304.58032227 C5.91816406 304.72727539 7.15566406 304.87422852 8.43066406 305.02563477 C54.70996995 310.87334755 100.41590522 329.3933615 136.18847656 359.70532227 C140.65556664 363.4633397 140.65556664 363.4633397 146.11816406 365.26782227 C154.24829988 363.69884869 160.30690713 360.55251866 166.57519531 355.16625977 C170.18434574 352.44767893 173.61706676 351.2918923 178.11816406 351.26782227 C178.83875 351.25106445 179.55933594 351.23430664 180.30175781 351.21704102 C186.82287428 352.21287653 191.83566773 356.8335363 196.89941406 360.74047852 C203.71245322 365.24741874 210.75380186 365.31879174 218.68066406 364.58032227 C225.3992544 362.98656575 230.38710227 359.62432096 235.57519531 355.16625977 C240.61126833 351.37285412 245.57862892 350.90594405 251.68066406 351.58032227 C255.78111265 353.03256447 258.71019038 355.37996552 262.05566406 358.08032227 C270.14802853 364.43860863 277.39974324 365.65926088 287.68066406 364.58032227 C294.88909893 362.92643894 300.02648123 359.06764899 305.55175781 354.28735352 C309.23524564 351.33380456 312.74488691 351.23690075 317.28222656 351.30297852 C322.9821853 351.96209427 327.26643604 355.19232434 331.68066406 358.64282227 C339.39782805 364.53891467 347.01385448 365.81881374 356.68066406 364.58032227 C360.11458279 363.42400269 363.39934065 362.05749939 366.73535156 360.64672852 C371.08152955 359.07311235 373.27670636 359.18959878 377.68066406 360.58032227 C380.62241191 362.44471948 383.09364756 364.40628926 384.68066406 367.58032227 C384.78374321 369.15857189 384.82446547 370.74108238 384.83456421 372.32266235 C384.84316467 373.32354889 384.85176514 374.32443542 384.86062622 375.35565186 C384.86701614 377.00914642 384.86701614 377.00914642 384.87353516 378.69604492 C384.88171265 379.8539151 384.88989014 381.01178528 384.89831543 382.20474243 C384.92320504 386.05128456 384.93969611 389.89778966 384.95410156 393.74438477 C384.96208708 395.71251696 384.96208708 395.71251696 384.97023392 397.72040939 C384.99186774 403.23634969 385.01060159 408.75228706 385.02185631 414.26825905 C385.03807515 422.16477471 385.07119593 430.06079669 385.12825716 437.95712626 C385.16703111 443.51308426 385.18649804 449.06891066 385.19177687 454.62500036 C385.19542171 457.94095543 385.20986629 461.25626493 385.23987961 464.57210159 C385.27150382 468.27785906 385.27157078 471.98237538 385.26416016 475.68823242 C385.28056549 476.77841675 385.29697083 477.86860107 385.31387329 478.99182129 C385.25823563 485.79935238 384.12726784 490.32612242 379.68066406 495.58032227 C375.14994447 499.77952579 371.55469248 501.82907277 365.3554678 501.83479786 C364.26950107 501.84063005 363.18353434 501.84646225 362.06465954 501.85247117 C360.27591517 501.84680219 360.27591517 501.84680219 358.45103455 501.84101868 C357.18383231 501.84484422 355.91663008 501.84866977 354.61102778 501.85261124 C351.09133811 501.86291763 347.57175 501.86070276 344.0520519 501.85643065 C340.25719876 501.85396826 336.46237038 501.86297142 332.66752625 501.87046814 C325.23278408 501.88322991 317.798078 501.88500706 310.36332672 501.88266788 C304.3227299 501.88088652 298.28214405 501.88263043 292.24154854 501.88689232 C291.38259468 501.88748751 290.52364083 501.8880827 289.63865807 501.88869592 C287.89385139 501.88990764 286.14904472 501.89112177 284.40423805 501.8923383 C268.03524753 501.90321914 251.66627761 501.90104853 235.29728592 501.89495345 C220.31013266 501.88978151 205.32304435 501.90104607 190.33590394 501.92005167 C174.95741789 501.93940454 159.57896262 501.94769071 144.20046431 501.94392842 C135.56239756 501.94201278 126.92438612 501.94453925 118.28632927 501.95864296 C110.93435015 501.97052514 103.5824604 501.97199723 96.23048013 501.95985279 C92.47720368 501.95394228 88.72409097 501.95292423 84.9708252 501.96485519 C80.90818879 501.97761995 76.84594618 501.96730167 72.78330994 501.95454407 C71.58858297 501.96191835 70.393856 501.96929264 69.16292518 501.97689039 C68.07956621 501.96968384 66.99620723 501.9624773 65.88001919 501.95505238 C64.47242074 501.9551349 64.47242074 501.9551349 63.03638595 501.95521909 C60.68066406 501.58032227 60.68066406 501.58032227 58.85570437 500.30690163 C57.68066406 498.58032227 57.68066406 498.58032227 57.68066406 494.58032227 C51.08066406 494.58032227 44.48066406 494.58032227 37.68066406 494.58032227 C37.35066406 496.23032227 37.02066406 497.88032227 36.68066406 499.58032227 C33.99102654 502.26995979 32.63811092 501.83826184 28.87533569 501.85447693 C27.63885284 501.86445206 26.40237 501.87442719 25.12841797 501.88470459 C23.75048841 501.88560048 22.37255868 501.886264 20.99462891 501.88671875 C19.54920013 501.89433711 18.10377543 501.90276405 16.65835571 501.91194153 C12.72417042 501.93393377 8.79006287 501.94269249 4.85582304 501.94776797 C2.39703286 501.95140798 -0.06173686 501.95764636 -2.52051926 501.96476936 C-11.10141649 501.98928661 -19.68225313 502.00231929 -28.26318359 502.00585938 C-36.25551761 502.00948969 -44.24746641 502.03934277 -52.23968279 502.08126396 C-59.10349897 502.116001 -65.96718782 502.13140846 -72.83109128 502.13210541 C-76.92943151 502.1328975 -81.02738017 502.14160304 -85.12562943 502.17010307 C-88.98519072 502.19634041 -92.8440376 502.19845799 -96.70364761 502.18244743 C-98.11613019 502.18063701 -99.52865432 502.18728702 -100.94104767 502.20326614 C-108.96138875 502.28843046 -115.15524892 502.11453831 -121.31933594 496.58032227 C-125.91706209 491.61961773 -127.56582915 487.98966232 -127.5934906 481.23077393 C-127.60845329 479.27095581 -127.60845329 479.27095581 -127.62371826 477.27154541 C-127.62461404 475.8253175 -127.62527762 474.37908944 -127.62573242 472.93286133 C-127.63335481 471.40832107 -127.64178245 469.88378465 -127.6509552 468.35925293 C-127.67290203 464.21858141 -127.68169959 460.07798374 -127.68678164 455.93726063 C-127.69042566 453.34880766 -127.69666602 450.76037401 -127.70378304 448.17192841 C-127.72828027 439.13715262 -127.74132957 430.10243425 -127.74487305 421.06762695 C-127.74850631 412.65377625 -127.7783858 404.24029079 -127.82027763 395.82655168 C-127.85500542 388.5975184 -127.87042193 381.36860599 -127.87111908 374.13948989 C-127.87191119 369.82432905 -127.88061887 365.50954009 -127.90911674 361.19446564 C-127.93533958 357.13297795 -127.93747954 353.07216926 -127.92146111 349.01063538 C-127.91964981 347.52397427 -127.9263086 346.03727375 -127.94227982 344.55069733 C-128.02489997 336.35783971 -128.01253218 329.87385957 -122.31933594 323.58032227 C-114.02684883 315.51855902 -100.15868876 313.12915068 -89.25683594 310.39282227 C-88.22292725 310.12832275 -87.18901855 309.86382324 -86.1237793 309.59130859 C-81.69953292 308.49605199 -77.42714091 307.48451796 -72.87011719 307.20532227 C-66.18311115 306.66706417 -66.18311115 306.66706417 -60.76220703 302.98657227 C-57.25078238 298.45309029 -54.55363325 293.47187793 -51.86132812 288.42358398 C-50.28750236 285.5216247 -48.62374159 282.69346591 -46.92089844 279.86547852 C-18.61391593 235.89497027 -18.61391593 235.89497027 -4.31933594 186.58032227 C-5.6204625 185.17537892 -5.6204625 185.17537892 -7.38183594 183.89282227 C-7.9503125 183.43520508 -8.51878906 182.97758789 -9.10449219 182.50610352 C-14.79999367 180.12544417 -21.71214668 183.53962282 -27.19433594 185.58032227 C-28.02078613 185.8879248 -28.84723633 186.19552734 -29.69873047 186.51245117 C-47.99496465 193.53549506 -63.34691768 204.05914063 -78.31933594 216.58032227 C-80.16891698 218.08597295 -82.02289402 219.5862443 -83.88183594 221.08032227 C-85.09033203 222.05485352 -85.09033203 222.05485352 -86.32324219 223.04907227 C-89.61509439 225.57432875 -92.0473923 225.92584857 -96.22167969 225.85766602 C-99.72837108 225.39402525 -101.70859371 223.88748982 -104.31933594 221.58032227 C-107.48466784 217.29180808 -107.73379453 213.82398634 -107.01464844 208.72875977 C-101.54916298 183.98055034 -88.74759487 159.50361674 -67.19433594 145.26782227 C-57.61847299 139.66962547 -47.30891366 136.73904578 -36.31933594 135.58032227 C-45.0450099 131.98884967 -53.75816357 129.02134227 -62.94433594 126.83032227 C-64.17543091 126.53315308 -64.17543091 126.53315308 -65.43139648 126.22998047 C-79.09315579 123.09355029 -92.74215948 122.10645318 -106.72363281 121.72094727 C-113.51090246 121.38969262 -118.28202805 121.10211142 -123.20239258 116.1418457 C-125.89820486 112.37301174 -125.77361237 108.0182536 -125.31933594 103.58032227 C-121.57090084 93.74068014 -107.21085441 87.6836458 -98.11816406 83.58911133 C-75.32877265 73.90995578 -49.79791953 68.71059434 -25.99511719 78.24438477 C-13.81076113 83.47776243 -4.4398101 91.00356415 4.68066406 100.58032227 C1.26276138 89.39445894 -2.66440238 78.9315712 -8.21875 68.62963867 C-9.35520764 66.51352833 -10.45836365 64.38192178 -11.56152344 62.24829102 C-19.32350288 47.50295318 -28.93520039 33.88678444 -40.34667969 21.72875977 C-46.44926664 15.08237793 -50.70630938 10.28158437 -50.60058594 1.12329102 C-50.07810529 -3.60080483 -47.65496782 -6.20546693 -44.25683594 -9.29467773 C-30.35108515 -14.62028442 -12.70364517 -5.51496593 0 0 Z " fill="#000101" transform="translate(127.3193359375,10.419677734375)"/>
<path d="M0 0 C57.73389133 0.98920998 112.68591095 34.00768436 153 73 C155.45798335 75.57410855 157.72728129 78.26274758 160 81 C160.78246094 81.87140625 161.56492187 82.7428125 162.37109375 83.640625 C179.15570204 102.48322366 208 140.40819931 208 167 C207.26578166 167.00238835 206.53156332 167.00477671 205.77509594 167.00723743 C187.92356239 167.06633089 170.07216778 167.14184448 152.22078228 167.23571491 C143.58803718 167.28071222 134.95533369 167.32011771 126.32250977 167.34643555 C118.79958743 167.36938386 111.27679636 167.40274617 103.75397807 167.44870156 C99.76936782 167.47267673 95.78488792 167.49137726 91.80020714 167.49761391 C88.05156223 167.50364549 84.30325103 167.52357473 80.55472946 167.55427551 C79.17727662 167.56308683 77.79978023 167.56677194 76.42230034 167.56500816 C74.54469422 167.56336274 72.66710216 167.58177494 70.78959656 167.60127258 C69.21194787 167.60818603 69.21194787 167.60818603 67.60242748 167.61523914 C64.99416481 167.80027156 64.99416481 167.80027156 63.20065022 169.27492046 C61.69240165 171.22418499 61.69240165 171.22418499 61 175 C54.4 175 47.8 175 41 175 C40.01 173.02 39.02 171.04 38 169 C35.34969574 167.67484787 33.35789496 167.87228262 30.3888092 167.86869812 C29.19558548 167.86468994 28.00236176 167.86068176 26.77297974 167.85655212 C25.45707855 167.85708084 24.14117737 167.85760956 22.78540039 167.8581543 C21.39097483 167.85512351 19.99655026 167.85160227 18.60212708 167.84762573 C15.59555513 167.83973089 12.58899509 167.83458965 9.58241463 167.83133507 C4.83049498 167.8254326 0.07865054 167.80890014 -4.67323303 167.78999329 C-6.29891486 167.7836558 -7.92459674 167.77733018 -9.55027866 167.77101612 C-10.36445511 167.76785031 -11.17863156 167.7646845 -12.01748002 167.76142275 C-23.08317326 167.71931181 -34.14883156 167.68635925 -45.21459961 167.67407227 C-52.67529124 167.66570301 -60.13579694 167.64325537 -67.59639555 167.6047166 C-71.54637859 167.5849185 -75.49608346 167.57256369 -79.44611931 167.57755089 C-83.16037722 167.5821833 -86.8741073 167.56847019 -90.58825874 167.54053879 C-92.60463266 167.53029041 -94.62107666 167.53990255 -96.63745117 167.55003357 C-98.43151649 167.53133209 -98.43151649 167.53133209 -100.26182556 167.51225281 C-101.30361938 167.50986445 -102.34541319 167.5074761 -103.41877651 167.50501537 C-106 167 -106 167 -107.81519413 165.14349079 C-110.48498909 160.31343292 -110.22068458 155.25529916 -109 150 C-105.80043293 145.26892158 -101.80825901 141.65683278 -97.5625 137.875 C-95.4070914 135.8839514 -93.26849394 133.87520801 -91.12890625 131.8671875 C-90.60457001 131.38158356 -90.08023376 130.89597961 -89.54000854 130.3956604 C-85.23220267 126.3593701 -81.53738385 122.04265249 -77.89331055 117.39160156 C-76.09776751 115.12349846 -74.21750332 112.99416617 -72.25 110.875 C-46.52499269 82.19543739 -25.34815759 47.80451394 -7.95678711 13.58666992 C-5.54063742 8.8467639 -3.07669412 4.34356817 0 0 Z " fill="#FEDCA7" transform="translate(124,330)"/>
<path d="M0 0 C2.8872164 1.11953289 4.00177869 1.89996319 6.1875 3.9375 C14.62894726 11.77463784 26.03361207 13.68537442 37.109375 13.4609375 C47.81057055 12.72073623 58.441207 7.808793 66.0625 0.1875 C70.17250967 0.48353085 72.54161349 2.0234438 75.75 4.5 C86.12410186 12.05184994 96.39609555 14.11082106 109.0625 13.1875 C118.29869837 11.37951933 126.00771782 7.75212148 132.99609375 1.44140625 C135.0625 0.1875 135.0625 0.1875 137.51953125 0.29296875 C140.40096911 1.3065621 142.33469035 2.63562049 144.75 4.5 C155.17005444 12.08530121 165.35356805 14.00831369 178.0625 13.1875 C180.83240628 12.57434185 183.41044449 11.81076721 186.07421875 10.84375 C188.0625 10.1875 188.0625 10.1875 191.0625 10.1875 C191.0625 25.3675 191.0625 40.5475 191.0625 56.1875 C179.85980121 61.7888494 173.37434354 64.54650036 161.42578125 61.51953125 C156.37172388 59.49967237 152.26054461 56.23978494 148.10546875 52.7734375 C143.66989965 49.33014676 140.19228297 48.6867544 134.64453125 48.80859375 C130.33182125 49.44147252 127.48844294 51.62137542 124.0625 54.1875 C122.50621534 55.25908321 120.94358837 56.32150913 119.375 57.375 C118.66988281 57.86355469 117.96476563 58.35210937 117.23828125 58.85546875 C110.25444574 63.13103052 102.99008316 63.09193657 95.0625 62.1875 C88.10206355 59.82253352 82.48206716 56.06511044 77.0625 51.1875 C72.55284507 48.48739148 68.18493498 48.43579623 63.0625 49.1875 C60.08611454 50.46938135 57.64798969 52.2508978 55.0625 54.1875 C53.50621534 55.25908321 51.94358837 56.32150913 50.375 57.375 C49.66988281 57.86355469 48.96476562 58.35210937 48.23828125 58.85546875 C41.24759187 63.13522652 33.99625919 63.07689959 26.0625 62.1875 C18.31300423 59.7129451 12.6118085 55.87837127 8.0625 49.1875 C7.4128125 48.23746094 6.763125 47.28742188 6.09375 46.30859375 C4.97063205 44.66544055 3.84763796 43.0221948 2.72973633 41.37548828 C-3.75878374 31.93495359 -11.5467601 23.46900977 -19.35546875 15.11328125 C-20.9375 13.1875 -20.9375 13.1875 -20.9375 11.1875 C-20.14085937 10.81238281 -19.34421875 10.43726563 -18.5234375 10.05078125 C-11.59827423 6.82909836 -11.59827423 6.82909836 -5.5625 2.25 C-2.9375 0.1875 -2.9375 0.1875 0 0 Z " fill="#5FB8FC" transform="translate(305.9375,377.8125)"/>
<path d="M0 0 C6.48516934 6.086082 12.19038455 13.98038419 13.625 22.875 C13 26 13 26 10.97265625 28.12109375 C8.19740031 32.17131875 8.58748673 35.40882837 8.8125 40.1875 C9.09090909 48.81818182 9.09090909 48.81818182 8 51 C9.485 51.495 9.485 51.495 11 52 C12.81997626 54.45696795 13.02683931 55.71897664 12.734375 58.78125 C10.25724805 69.6384447 2.06260161 78.84764402 -6.92578125 85.00390625 C-21.1035809 93.63308799 -35.8849081 96.26301637 -52.125 92.375 C-66.48702372 88.63645371 -77.94254524 79.58704667 -85.53125 66.84375 C-92.49911646 53.35277452 -94.24568786 38.35324792 -90.4375 23.625 C-88.2973816 17.02250707 -85.09224096 11.57181549 -81 6 C-80.2575 4.948125 -79.515 3.89625 -78.75 2.8125 C-56.62108369 -19.81934623 -23.67351922 -20.07754162 0 0 Z " fill="#FEC264" transform="translate(448,224)"/>
<path d="M0 0 C2.51898365 2.44701268 3.89441948 4.04399008 4.28515625 7.58203125 C3.90462783 12.14315957 2.63002301 16.21343712 1.25 20.5625 C0.87101562 21.78936523 0.87101562 21.78936523 0.484375 23.04101562 C-0.04884835 24.76466009 -0.58622196 26.48702474 -1.12719727 28.20825195 C-2.06308724 31.20179092 -2.97428198 34.20235978 -3.88671875 37.203125 C-10.68922446 59.30234777 -18.51001077 80.90634213 -28 102 C-28.80244141 103.79002441 -28.80244141 103.79002441 -29.62109375 105.61621094 C-45.21623547 140.27353154 -63.59314191 173.2454889 -86 204 C-86.42861328 204.58910156 -86.85722656 205.17820312 -87.29882812 205.78515625 C-89.817047 209.22851979 -92.39393904 212.62280514 -95 216 C-95.40750488 216.53222168 -95.81500977 217.06444336 -96.23486328 217.61279297 C-105.47639575 229.66530602 -115.37217909 241.11171439 -125.625 252.3125 C-126.12185303 252.857854 -126.61870605 253.40320801 -127.13061523 253.96508789 C-129.32043295 256.33330989 -131.29996096 258.19997397 -134 260 C-134.28023881 252.79370039 -134.49232825 245.58860617 -134.62174606 238.37792683 C-134.68393822 235.02714775 -134.77456835 231.68295537 -134.90527344 228.33374023 C-135.84324756 203.66594046 -135.84324756 203.66594046 -129.87335205 196.61564636 C-127.39592595 194.18529532 -124.74877528 192.1210013 -122 190 C-120.45103067 188.22916679 -118.94142055 186.42192546 -117.5 184.5625 C-114.65362812 181.0147739 -111.75036012 177.53947618 -108.76196289 174.11206055 C-67.60152057 126.82374355 -34.31303023 70.7821075 -13.89794922 11.56884766 C-12.65824082 8.02229742 -11.33690747 4.51094391 -10 1 C-3.375 0 -3.375 0 0 0 Z " fill="#DB8657" transform="translate(149,199)"/>
<path d="M0 0 C2.78665305 1.06013975 4.51510523 2.32324842 6.765625 4.26953125 C17.62225356 13.09620589 29.00910915 13.76612022 42.515625 12.95703125 C50.85840359 11.78062392 59.29864885 7.27230522 65.19140625 1.2421875 C66.515625 -0.04296875 66.515625 -0.04296875 68.765625 -0.10546875 C71.46102513 0.93593585 72.57051171 1.79044311 74.640625 3.70703125 C82.42430293 10.8064298 91.83960907 13.13894469 102.078125 13.20703125 C103.20057617 13.23796875 103.20057617 13.23796875 104.34570312 13.26953125 C110.75569432 13.31309958 116.41914144 11.85980569 122.515625 9.95703125 C122.61452533 15.86518468 122.68710871 21.77285597 122.73535156 27.68164062 C122.75546305 29.69149163 122.78275615 31.70128416 122.81738281 33.7109375 C122.86592134 36.60040721 122.88859822 39.48910316 122.90625 42.37890625 C122.92689514 43.27695984 122.94754028 44.17501343 122.96881104 45.10028076 C122.96911316 45.94085022 122.96941528 46.78141968 122.96972656 47.64746094 C122.97860901 48.38470398 122.98749146 49.12194702 122.99664307 49.88153076 C122.29637671 52.90304546 120.90556997 54.01947686 118.515625 55.95703125 C115.75891495 56.44922256 115.75891495 56.44922256 112.52984619 56.43804932 C110.6915197 56.4462973 110.6915197 56.4462973 108.8160553 56.45471191 C107.46102513 56.44055634 106.10599892 56.42601711 104.75097656 56.41113281 C103.32183362 56.41000433 101.89268835 56.41063822 100.46354675 56.41290283 C96.58560496 56.41405089 92.70815768 56.39052724 88.83033085 56.362607 C84.77711046 56.33760837 80.72387884 56.33525257 76.67059326 56.33050537 C68.99597698 56.31807104 61.3215885 56.28524334 53.64707255 56.24510741 C44.90957242 56.20040386 36.17206144 56.17840624 27.43447542 56.15832567 C9.4613961 56.11651103 -8.51147113 56.04615017 -26.484375 55.95703125 C-26.73573715 55.27909515 -26.9870993 54.60115906 -27.24607849 53.90267944 C-28.40492407 50.78179674 -29.56767097 47.66238096 -30.73046875 44.54296875 C-31.12568726 43.4768335 -31.52090576 42.41069824 -31.92810059 41.31225586 C-34.54413549 34.30487585 -37.33392725 27.41589868 -40.4473877 20.61499023 C-42.484375 16.13936468 -42.484375 16.13936468 -42.484375 13.95703125 C-41.44539063 13.91964844 -40.40640625 13.88226563 -39.3359375 13.84375 C-26.83261527 13.29862557 -16.90123334 11.43158399 -6.484375 3.95703125 C-5.83210938 3.21324219 -5.17984375 2.46945312 -4.5078125 1.703125 C-2.484375 -0.04296875 -2.484375 -0.04296875 0 0 Z " fill="#8AC9FE" transform="translate(374.484375,441.04296875)"/>
<path d="M0 0 C6.47871982 6.08002937 12.28767804 14.01374631 13.5625 22.9375 C12.64482502 27.93373045 12.64482502 27.93373045 10 30 C4.61809045 30.68341709 4.61809045 30.68341709 2 30 C-1.42345043 27.2208872 -3.17288803 24.06251908 -5.1875 20.1875 C-10.9622069 10.10019285 -19.02420878 5.75034596 -29.88671875 2.421875 C-39.95250563 0.4124388 -49.1614751 1.91270951 -58 7 C-67.68129217 13.73765604 -73.40546609 22.52866188 -76 34 C-77.47553699 44.76539741 -74.06865308 55.2325589 -67.75390625 63.96875 C-61.18711392 71.57394379 -52.85739122 76.61648229 -42.78515625 77.4140625 C-30.99113409 77.96632028 -21.59787954 76.00053994 -12.1875 68.4375 C-7.91995415 64.38681674 -5.22388151 59.72189951 -2.5078125 54.5390625 C-1 52 -1 52 2 50 C4.80000828 49.77983806 7.32740693 50.14432571 10 51 C12.0625 53.1875 12.0625 53.1875 13 56 C12.11015875 65.85670309 5.5482403 74.36719692 -1.48046875 80.96484375 C-13.98919153 91.06878882 -28.03096745 95.28403319 -44 94 C-59.43587373 91.61899615 -72.33867197 84.88794726 -82.04296875 72.36328125 C-91.23568965 58.62320161 -94.09019521 43.3774813 -91.3515625 27.16015625 C-89.27336473 19.12268198 -85.89713043 12.66771763 -81 6 C-80.2575 4.948125 -79.515 3.89625 -78.75 2.8125 C-56.62108369 -19.81934623 -23.67351922 -20.07754162 0 0 Z " fill="#010100" transform="translate(448,224)"/>
<path d="M0 0 C20.59866208 4.74436777 40.29939617 13.72432492 56 28 C56.65355469 28.58394531 57.30710938 29.16789062 57.98046875 29.76953125 C70.09816423 41.19172986 78.76032458 58.1555663 79.3984375 74.91015625 C79.41148911 76.96091085 79.40306411 79.0118959 79.375 81.0625 C79.36412354 82.15522217 79.35324707 83.24794434 79.34204102 84.3737793 C79.00992299 101.46469847 75.1058402 116.09023995 69 132 C61.52706772 127.09914674 61.52706772 127.09914674 59.58203125 123.04296875 C59.38996094 122.03878906 59.19789063 121.03460938 59 120 C58.77699219 118.94425781 58.55398437 117.88851562 58.32421875 116.80078125 C58.11410156 115.64964844 57.90398437 114.49851562 57.6875 113.3125 C53.33811422 90.90291452 45.89019396 70.07817296 35 50 C34.45569336 48.99404785 34.45569336 48.99404785 33.90039062 47.96777344 C25.60856901 32.84697309 15.67300028 18.33989314 3.671875 5.91015625 C2.02190377 4.02502557 1.00193066 2.28501533 0 0 Z " fill="#00F1A6" transform="translate(95,16)"/>
<path d="M0 0 C-6.94576083 21.22625999 -14.4421448 41.78332148 -24 62 C-25.06254423 64.28643778 -26.12504359 66.57289641 -27.1875 68.859375 C-34.12361437 83.6464515 -41.73120866 97.91931163 -50 112 C-50.48791016 112.84046875 -50.97582031 113.6809375 -51.47851562 114.546875 C-69.16409621 144.98809084 -89.79294758 173.7038314 -112 201 C-112.680625 201.84304688 -113.36125 202.68609375 -114.0625 203.5546875 C-118.47383482 208.99008219 -122.96293838 214.35692492 -127.5 219.6875 C-128.29325684 220.62480957 -128.29325684 220.62480957 -129.10253906 221.58105469 C-130.37927648 223.07350806 -131.68671175 224.5396064 -133 226 C-133.33 226 -133.66 226 -134 226 C-136.0827825 204.16015632 -136.0827825 204.16015632 -131.64453125 197.8984375 C-129.18619316 195.112321 -126.41467268 192.70928828 -123.55126953 190.34863281 C-121.2239653 188.3253359 -119.39618381 185.98598355 -117.5 183.5625 C-114.65362812 180.0147739 -111.75036012 176.53947618 -108.76196289 173.11206055 C-67.60152057 125.82374355 -34.31303023 69.7821075 -13.89794922 10.56884766 C-12.65824082 7.02229742 -11.33690747 3.51094391 -10 0 C-3.375 -1.125 -3.375 -1.125 0 0 Z " fill="#C86A34" transform="translate(149,200)"/>
<path d="M0 0 C2.50860312 1.96240649 4.92308645 3.99765192 7.32421875 6.08984375 C8.15695312 6.78980469 8.9896875 7.48976562 9.84765625 8.2109375 C16.33584684 13.81074507 23.44302355 20.32745336 27.32421875 28.08984375 C22.39370404 27.05453817 17.54788674 25.90135144 12.70703125 24.50390625 C-16.87148551 15.98546422 -46.28648843 12.03670755 -76.86328125 17.15234375 C-87.22072796 18.86410935 -87.22072796 18.86410935 -91.3828125 16.28515625 C-93.89789521 14.0268582 -95.84247059 11.91975061 -97.67578125 9.08984375 C-71.747468 -18.40691189 -30.45173492 -21.73853777 0 0 Z " fill="#00F1A6" transform="translate(286.67578125,142.91015625)"/>
<path d="M0 0 C17.40972643 -1.42702676 37.07920185 6.06843938 50.4375 17.125 C59.11178194 25.56484189 65.50889569 36.85741247 68.625 48.5 C68.86476563 49.3765625 69.10453125 50.253125 69.3515625 51.15625 C71.09031658 58.78162933 71.12001061 66.15587177 71.0625 73.9375 C71.05798828 75.09830078 71.05347656 76.25910156 71.04882812 77.45507812 C71.03710647 80.30343934 71.0206976 83.15169222 71 86 C67.82008458 82.23543645 65.31751177 78.2599388 62.875 74 C58.46788756 66.51129823 53.49989298 59.7154273 48 53 C47.54254395 52.4342627 47.08508789 51.86852539 46.61376953 51.28564453 C32.92102474 34.4341203 17.04560123 20.55329925 -2 10 C-1.34 6.7 -0.68 3.4 0 0 Z " fill="#00F0A5" transform="translate(205,182)"/>
<path d="M0 0 C0.89976563 0.40089844 1.79953125 0.80179687 2.7265625 1.21484375 C15.56256244 7.45205499 29.16631071 20.2962417 34 34 C32.63484485 34.706847 31.25722137 35.38963646 29.875 36.0625 C28.72644531 36.63677734 28.72644531 36.63677734 27.5546875 37.22265625 C22.92673683 38.63085531 19.81914689 37.42278549 15.609375 35.25 C14.32245552 34.50079155 13.03603056 33.75073327 11.75 33 C-14.58062614 18.50145358 -44.36569127 13.83575364 -74 12 C-55.12577233 -3.30856753 -22.33793531 -11.23943433 0 0 Z " fill="#00F1A6" transform="translate(97,104)"/>
<path d="M0 0 C1.24523437 0.01804688 2.49046875 0.03609375 3.7734375 0.0546875 C5.18496094 0.08949219 5.18496094 0.08949219 6.625 0.125 C7.12 1.115 7.12 1.115 7.625 2.125 C6.86316406 2.72634766 6.86316406 2.72634766 6.0859375 3.33984375 C-4.06862477 11.72591484 -9.39482965 21.62334863 -10.7578125 34.8359375 C-11.17794812 48.42032248 -7.68083854 60.02640025 1.4609375 70.16015625 C4.06821794 72.83894438 6.50342087 75.04394724 9.625 77.125 C-4.24015313 77.6687315 -14.24587318 77.26644243 -25.33984375 68.03125 C-31.79715267 61.98294529 -34.73994958 55.48959594 -37.375 47.125 C-37.87 45.64 -37.87 45.64 -38.375 44.125 C-39.40167566 34.31267365 -37.37578986 24.88564785 -31.5625 16.8125 C-30.52518687 15.56200473 -29.46232111 14.3322654 -28.375 13.125 C-27.55322266 12.18333984 -27.55322266 12.18333984 -26.71484375 11.22265625 C-19.5357762 3.48757891 -10.55452374 -0.19914196 0 0 Z " fill="#FCA70F" transform="translate(409.375,224.875)"/>
<path d="M0 0 C6.52353732 1.47355196 12.63705033 3.60212519 18.875 6 C19.82375 6.35578125 20.7725 6.7115625 21.75 7.078125 C22.65492187 7.42359375 23.55984375 7.7690625 24.4921875 8.125 C25.31058105 8.43695313 26.12897461 8.74890625 26.97216797 9.0703125 C30.8007304 10.82556963 31.5513144 13.26084817 33 17 C33.80805408 18.54673229 34.64405826 20.07910641 35.50390625 21.59765625 C53.55895338 53.85219916 65.02779028 85.68813096 68.69042969 122.58422852 C68.92709952 124.9813818 68.92709952 124.9813818 69.66113281 127.13256836 C70 129 70 129 68 132 C63.99668304 129.94004079 60.82697061 127.37980518 59.30908203 123.01171875 C58.06752106 117.95375003 57.30284275 112.7993321 56.46533203 107.66210938 C52.91107039 87.32859995 44.79873014 68.0658489 35 50 C34.45569336 48.99404785 34.45569336 48.99404785 33.90039062 47.96777344 C25.60856901 32.84697309 15.67300028 18.33989314 3.671875 5.91015625 C2.02190377 4.02502557 1.00193066 2.28501533 0 0 Z " fill="#00E19B" transform="translate(95,16)"/>
<path d="M0 0 C18.37978868 7.62698714 34.10221058 39.39642698 43.40625 56.26953125 C44.8650416 59.03453178 44.8650416 59.03453178 47 61 C39.00790164 63.66403279 29.98884014 62.99552493 22.4375 59.4375 C17.490681 56.58813226 14.19110146 53.6932955 11 49 C10.3503125 48.04996094 9.700625 47.09992188 9.03125 46.12109375 C7.90813205 44.47794055 6.78513796 42.8346948 5.66723633 41.18798828 C-0.82128374 31.74745359 -8.6092601 23.28150977 -16.41796875 14.92578125 C-18 13 -18 13 -18 11 C-17.20335937 10.62488281 -16.40671875 10.24976563 -15.5859375 9.86328125 C-9.78704774 7.06260092 -4.69262999 4.43192833 0 0 Z " fill="#1CA6FC" transform="translate(303,378)"/>
<path d="M0 0 C10.21093784 9.28267077 17.40483242 22.08704484 18.23828125 35.96875 C18.72452517 55.70850895 11.91461036 71.07645025 -1 86 C-1.91072266 87.07507813 -1.91072266 87.07507813 -2.83984375 88.171875 C-4.21570827 89.79053914 -5.60601372 91.39691578 -7 93 C-7.99073161 89.8737504 -7.96240607 87.77468383 -7.2578125 84.5859375 C-7.07863281 83.74160156 -6.89945313 82.89726562 -6.71484375 82.02734375 C-6.52019531 81.15207031 -6.32554687 80.27679688 -6.125 79.375 C-1.34967369 57.60609869 -2.12547198 35.85681052 -6 14 C-6.31904297 12.14375 -6.31904297 12.14375 -6.64453125 10.25 C-7.07372701 7.82921238 -7.53170342 5.41352854 -8 3 C-5.36 2.01 -2.72 1.02 0 0 Z " fill="#00F1A6" transform="translate(189,207)"/>
<path d="M0 0 C0.86560547 0.00902344 1.73121094 0.01804688 2.62304688 0.02734375 C4.72798779 0.05060277 6.83278342 0.08645992 8.9375 0.125 C9.4325 7.55 9.4325 7.55 9.9375 15.125 C8.88175781 15.44210938 7.82601562 15.75921875 6.73828125 16.0859375 C-16.59719406 23.33553457 -37.51472984 34.56788204 -56.09375 50.48046875 C-58.0625 52.125 -58.0625 52.125 -60.0625 53.125 C-55.82343553 34.75572065 -44.99914326 17.2726747 -28.91796875 7.14453125 C-19.18249392 1.64778469 -11.09490252 -0.22379167 0 0 Z " fill="#00DF99" transform="translate(98.0625,161.875)"/>
<path d="M0 0 C2.50860312 1.96240649 4.92308645 3.99765192 7.32421875 6.08984375 C8.15695312 6.78980469 8.9896875 7.48976562 9.84765625 8.2109375 C16.33584684 13.81074507 23.44302355 20.32745336 27.32421875 28.08984375 C25.88510535 27.80624488 24.44796357 27.51262976 23.01171875 27.21484375 C22.21121094 27.05242187 21.41070312 26.89 20.5859375 26.72265625 C17.3891617 25.82822157 15.49078947 24.26131361 13.19921875 21.90234375 C-1.57617317 6.95157626 -21.5654205 -1.55223081 -42.48828125 -2.22265625 C-60.38840419 -1.84876334 -75.67413648 5.02588147 -90.67578125 14.08984375 C-92.98578125 12.43984375 -95.29578125 10.78984375 -97.67578125 9.08984375 C-71.747468 -18.40691189 -30.45173492 -21.73853777 0 0 Z " fill="#00E09A" transform="translate(286.67578125,142.91015625)"/>
<path d="M0 0 C7.41924346 11.1288652 17 31.40626578 17 45 C9.08 45 1.16 45 -7 45 C-9.0109375 39.555 -9.0109375 39.555 -11.0625 34 C-14.12298347 25.76738909 -17.31159298 17.63615876 -20.96704102 9.6484375 C-23 5.18332914 -23 5.18332914 -23 3 C-21.38931641 2.92652344 -21.38931641 2.92652344 -19.74609375 2.8515625 C-18.30987358 2.77646602 -16.87367681 2.70092124 -15.4375 2.625 C-14.73302734 2.5940625 -14.02855469 2.563125 -13.30273438 2.53125 C-8.58704259 2.27047442 -4.49614504 1.45341877 0 0 Z " fill="#5FB7FC" transform="translate(355,452)"/>
<path d="M0 0 C4.13209614 1.61174579 8.25447055 3.10667107 12.49609375 4.40234375 C33.26445467 10.7900123 52.63896966 19.87226889 70 33 C70.79792969 33.59683594 71.59585938 34.19367188 72.41796875 34.80859375 C72.94003906 35.20175781 73.46210937 35.59492188 74 36 C71 38 71 38 68.265625 37.875 C64.36573513 36.83005343 61.20391014 35.01625478 57.75 33 C31.41937386 18.50145358 1.63430873 13.83575364 -28 12 C-24.35956598 8.99145478 -20.33219396 7.01793811 -16.125 4.9375 C-15.43019531 4.58623047 -14.73539063 4.23496094 -14.01953125 3.87304688 C-3.11618514 -1.55809257 -3.11618514 -1.55809257 0 0 Z " fill="#00DF99" transform="translate(51,104)"/>
<path d="M0 0 C5.50015002 2.40006546 8.6101148 6.59987642 11 12 C11.93753646 17.83356019 10.27780219 22.23319621 7 27 C3.12208587 31.00651843 -0.16411041 33.15169409 -5.75 33.3125 C-10.63055246 33.26327253 -13.22549994 32.23528577 -17 29 C-17.7425 28.38125 -18.485 27.7625 -19.25 27.125 C-22.17592877 23.57208649 -22.85423507 20.12447231 -23.4375 15.625 C-22.70509698 9.55651783 -19.74278346 5.70027655 -15.4375 1.5 C-10.28505897 -0.7483379 -5.53284043 -0.73060892 0 0 Z " fill="#908190" transform="translate(145,152)"/>
<path d="M0 0 C4.79072856 1.39912715 8.88845512 3.47466521 13.125 6.0625 C13.78097168 6.46098145 14.43694336 6.85946289 15.11279297 7.27001953 C36.46859171 20.44832485 55.06422132 37.8995128 70 58 C70.66 57.67 71.32 57.34 72 57 C72 65.25 72 73.5 72 82 C68.8657146 78.08214325 66.34500284 74.30788544 63.875 70 C59.46788756 62.51129823 54.49989298 55.7154273 49 49 C48.54254395 48.4342627 48.08508789 47.86852539 47.61376953 47.28564453 C33.92102474 30.4341203 18.04560123 16.55329925 -1 6 C-0.67 4.02 -0.34 2.04 0 0 Z " fill="#00E09A" transform="translate(204,186)"/>
<path d="M0 0 C0.33 0 0.66 0 1 0 C1 14.52 1 29.04 1 44 C-4.8471875 44.12375 -4.8471875 44.12375 -10.8125 44.25 C-12.65098511 44.30462402 -12.65098511 44.30462402 -14.52661133 44.36035156 C-15.4936499 44.3703418 -16.46068848 44.38033203 -17.45703125 44.390625 C-18.44678955 44.41157227 -19.43654785 44.43251953 -20.45629883 44.45410156 C-23 44 -23 44 -24.78833008 42.34814453 C-27.37945835 37.32669143 -27.29354468 32.42035502 -26 27 C-22.65093414 22.10476006 -18.51818249 18.3220483 -14.125 14.375 C-12.98266635 13.30659541 -11.84331065 12.23499747 -10.70703125 11.16015625 C-9.1101765 9.64987565 -7.51079652 8.14557572 -5.88577271 6.6656189 C-3.55181966 4.53591182 -1.76628632 2.64942948 0 0 Z " fill="#FCC164" transform="translate(41,453)"/>
<path d="M0 0 C-8.88847357 12.12690968 -18.37894826 23.75181617 -28.0625 35.25 C-28.50319824 35.77456787 -28.94389648 36.29913574 -29.39794922 36.83959961 C-31.81729624 39.69274444 -34.34123885 42.3710024 -37 45 C-37.14849962 40.23125836 -37.25728023 35.46386585 -37.32958984 30.69335938 C-37.35973462 29.0713761 -37.40065941 27.44955548 -37.45263672 25.828125 C-37.52556613 23.49438389 -37.55947489 21.16279889 -37.5859375 18.828125 C-37.61690521 18.10506165 -37.64787292 17.38199829 -37.67977905 16.63702393 C-37.68115234 14.57519531 -37.68115234 14.57519531 -37 11 C-32.93317573 7.52187407 -28.51408403 5.91780964 -23.4375 4.4375 C-22.7451123 4.22915527 -22.05272461 4.02081055 -21.33935547 3.80615234 C-3.14509732 -1.57254866 -3.14509732 -1.57254866 0 0 Z " fill="#FABF63" transform="translate(52,335)"/>
<path d="M0 0 C0.27580856 1.60098249 0.53527205 3.20610106 0.72265625 4.81982422 C1.03042426 7.23916257 1.47231172 9.60989951 1.9375 12.00390625 C2.11023438 12.91076172 2.28296875 13.81761719 2.4609375 14.75195312 C2.81525539 16.59928443 3.17448679 18.44568133 3.5390625 20.29101562 C5.88555659 32.73268767 6.33077565 45.34326319 6.19750977 57.97827148 C6.19081206 59.45650376 6.20398252 60.93495363 6.23657227 62.4128418 C6.39000464 69.71092084 6.43739378 76.12970043 1.48591614 81.9322052 C-0.57342429 84.0792239 -2.75024002 86.05519297 -5 88 C-6.00821784 88.99171407 -7.01253579 89.98761942 -8 91 C-7.40217466 84.18479118 -6.16138843 77.62803538 -4.71875 70.94140625 C-0.9160861 51.53135215 -2.57675858 31.31103316 -6 12 C-6.31904297 10.14375 -6.31904297 10.14375 -6.64453125 8.25 C-7.07393997 5.82801125 -7.51979495 3.41232419 -8 1 C-2.25 -1.125 -2.25 -1.125 0 0 Z " fill="#00E09A" transform="translate(189,209)"/>
<path d="M0 0 C5.4662009 -0.56939593 8.66943974 0.31208141 13.19921875 3.4609375 C16.87891737 6.60584261 18.64423248 9.66527568 19.375 14.4609375 C19.64804074 20.143598 18.86886541 23.60831494 15 28 C9.72728068 32.75830768 5.65067082 33.32826858 -1.2578125 33.30078125 C-5.18430191 32.87009794 -7.04958998 31.55170596 -10 29 C-8.86790617 26.54713003 -7.62581201 24.46889446 -6.0625 22.25 C-1.51362765 15.08207994 -0.44874615 8.41785888 0 0 Z " fill="#908290" transform="translate(171,163)"/>
<path d="M0 0 C0.495 3.465 0.495 3.465 1 7 C-0.58361328 7.47566406 -0.58361328 7.47566406 -2.19921875 7.9609375 C-20.4008942 13.61562468 -36.72543503 21.56406253 -52.3125 32.53125 C-55.10052209 34.4709895 -57.74831199 35.93303987 -61 37 C-53.29126913 21.31137688 -41.28458601 9.50977847 -25 3 C-16.64317896 0.32217947 -8.73960412 -0.42516993 0 0 Z " fill="#00F1A6" transform="translate(107,170)"/>
<path d="M0 0 C-3.75 3 -3.75 3 -6 3 C-8.45679333 10.98457831 -9.89129492 19.82006818 -6.1875 27.625 C-4.64503891 30.42625118 -3.80894933 31.12736711 -1 33 C-7.57118999 33.46751549 -11.76812709 33.4844625 -17 29 C-17.7425 28.38125 -18.485 27.7625 -19.25 27.125 C-22.17592877 23.57208649 -22.85423507 20.12447231 -23.4375 15.625 C-22.70509698 9.55651783 -19.74278346 5.70027655 -15.4375 1.5 C-10.34168264 -0.72362939 -5.47885909 -0.31915684 0 0 Z " fill="#786976" transform="translate(145,152)"/>
<path d="M0 0 C4.98679045 1.05489798 7.68743244 4.19561831 11.25 7.6875 C11.8584375 8.20054687 12.466875 8.71359375 13.09375 9.2421875 C16.08324215 11.85094244 17.19392549 13.36226784 17.875 17.3125 C17.15356355 21.20825685 16.46657161 22.42720644 13.25 24.6875 C10.09349497 25.93348883 8.66498485 25.82582828 5.4375 24.75 C0.1052489 21.29971988 -5.37738961 16.74132549 -7.75 10.6875 C-7.6024997 7.14749272 -7.12096501 5.2095989 -5.0625 2.3125 C-2.75 0.6875 -2.75 0.6875 0 0 Z " fill="#000000" transform="translate(348.75,194.3125)"/>
<path d="M0 0 C2.3125 1.0625 2.3125 1.0625 4 3 C4.99876535 6.59555526 5.41632641 8.91755134 4.0625 12.4375 C-4.26057143 22.77828571 -4.26057143 22.77828571 -10 25 C-13.04737897 24.81342578 -15.2058182 24.49294043 -17.8125 22.875 C-19.80833485 19.72368182 -20.12294851 17.74992954 -20 14 C-18.07444669 10.90237076 -15.63440364 8.50293628 -13 6 C-12.40058594 5.39285156 -11.80117188 4.78570312 -11.18359375 4.16015625 C-7.57647467 0.73056876 -5.19020527 -1.03804105 0 0 Z " fill="#000000" transform="translate(474,195)"/>
<path d="M0 0 C3.82280644 0.75975441 5.96156365 3.20108886 8.53442383 5.97924805 C9.32623047 6.74978516 9.32623047 6.74978516 10.1340332 7.53588867 C13.72870201 11.25053359 14.99532961 14.08305174 15.09692383 19.41674805 C13.65942383 22.35424805 13.65942383 22.35424805 11.09692383 24.41674805 C6.79094177 25.27794446 4.63718581 25.4184764 0.94067383 23.0144043 C-1.13566691 21.24409139 -3.02909325 19.39876546 -4.90307617 17.41674805 C-5.70745117 16.59174805 -6.51182617 15.76674805 -7.34057617 14.91674805 C-9.39742949 11.62578273 -9.90307617 9.29487397 -9.90307617 5.41674805 C-7.55919394 0.62707567 -5.24314682 -0.14618994 0 0 Z " fill="#000000" transform="translate(463.903076171875,307.583251953125)"/>
<path d="M0 0 C3.625 0.9375 3.625 0.9375 6.125 3.0625 C7.9690701 6.5969677 8.47182469 8.01131282 7.625 11.9375 C5.58182189 14.91152429 3.18970835 17.40913367 0.625 19.9375 C-0.14457031 20.73994141 -0.14457031 20.73994141 -0.9296875 21.55859375 C-3.61303577 24.11865305 -5.30378129 24.92767673 -9 25.4375 C-12.5452228 24.91228181 -14.03863098 24.63331041 -16.375 21.9375 C-17.3125 19.0625 -17.3125 19.0625 -17.375 15.9375 C-14.14496044 9.59277943 -7.69561965 0.43314932 0 0 Z " fill="#000000" transform="translate(358.375,307.0625)"/>
<path d="M0 0 C2.10889281 1.8124816 2.89678858 3.29239736 3.2980957 6.04370117 C3.44106395 8.53650063 3.45821148 11.00332479 3.4375 13.5 C3.4674707 14.78197266 3.4674707 14.78197266 3.49804688 16.08984375 C3.49321056 22.28999358 3.49321056 22.28999358 1.22265625 25.55859375 C-1.09278236 27.06016993 -2.26828218 27.56783539 -5 27.5625 C-5.66 27.58441406 -6.32 27.60632813 -7 27.62890625 C-10.29197452 26.59373458 -11.27039694 24.9433596 -13 22 C-13.56607591 18.9620836 -13.55970718 16.01988317 -13.5 12.9375 C-13.51546875 12.13505859 -13.5309375 11.33261719 -13.546875 10.50585938 C-13.52117913 6.63541873 -13.49456243 4.64759302 -11.09375 1.50390625 C-7.068849 -1.38711406 -4.8553639 -1.1073637 0 0 Z " fill="#000000" transform="translate(415,330)"/>
<path d="M0 0 C3.4375 0.625 3.4375 0.625 5.6171875 2.6015625 C8.08435466 6.6993895 8.06478573 9.92994029 8 14.625 C8.02384766 15.4190625 8.04769531 16.213125 8.07226562 17.03125 C8.06144554 21.35928549 7.82613023 23.12450117 5.08984375 26.6484375 C2.4375 28.625 2.4375 28.625 -0.5625 29.25 C-4.6912525 28.38984323 -5.98074144 26.94440386 -8.5625 23.625 C-9.28372914 20.60329859 -9.26283855 17.718903 -9.1875 14.625 C-9.20683594 13.8309375 -9.22617187 13.036875 -9.24609375 12.21875 C-9.2102873 7.92197607 -8.93489801 6.11106418 -6.24609375 2.6015625 C-3.5625 0.625 -3.5625 0.625 0 0 Z " fill="#000000" transform="translate(410.5625,169.375)"/>
<path d="M0 0 C1.35351562 -0.03577148 1.35351562 -0.03577148 2.734375 -0.07226562 C9.29373623 -0.05771083 9.29373623 -0.05771083 12.62890625 2.87109375 C14.49937227 6.54274926 14.08873351 8.64305936 13 12.5625 C11.42114034 14.62188216 10.30857577 15.40821211 8 16.5625 C5.38139265 16.71362939 2.80709118 16.79383862 0.1875 16.8125 C-0.88081055 16.8434375 -0.88081055 16.8434375 -1.97070312 16.875 C-6.51206543 16.9086086 -9.40364881 16.38477941 -13 13.5625 C-14.54586876 10.47076248 -14.29359521 7.96820448 -14 4.5625 C-10.61388918 -0.75853129 -5.69243809 -0.06912246 0 0 Z " fill="#000000" transform="translate(490,255.4375)"/>
<path d="M0 0 C0.90234375 -0.01095703 1.8046875 -0.02191406 2.734375 -0.03320312 C9.23646842 0.03893549 9.23646842 0.03893549 12.59765625 2.34375 C14.92389309 6.02425842 14.47808949 8.2596946 14 12.5625 C12.18836733 15.23681489 11.12238923 15.52170359 8 16.5625 C5.35889523 16.73648206 2.76752888 16.83929015 0.125 16.875 C-0.58269531 16.90400391 -1.29039062 16.93300781 -2.01953125 16.96289062 C-5.67772688 17.00717046 -7.79999553 16.6852119 -10.94140625 14.7578125 C-13.79389027 11.71588457 -14.07248067 9.69389832 -14 5.5625 C-10.77452911 -0.72397017 -6.33010178 -0.16729555 0 0 Z " fill="#000000" transform="translate(330,255.4375)"/>
<path d="M0 0 C0.33 0 0.66 0 1 0 C1.14695313 1.16015625 1.14695313 1.16015625 1.296875 2.34375 C2.25497932 9.01744214 3.62861447 14.15626507 7 20 C0.59858988 20.51211281 -2.98010898 20.11888494 -8 16 C-6.84906095 13.50629873 -5.57651836 11.39124515 -4 9.125 C-2.06637651 6.10371329 -0.98060728 3.43212548 0 0 Z " fill="#756773" transform="translate(169,176)"/>
<path d="M0 0 C-1.47535937 2.00291212 -2.95502293 4.00236777 -4.4375 6 C-4.85837891 6.57234375 -5.27925781 7.1446875 -5.71289062 7.734375 C-6.78444136 9.17453919 -7.88966676 10.58951996 -9 12 C-9.33 12 -9.66 12 -10 12 C-10 8.37 -10 4.74 -10 1 C-2.25 -1.125 -2.25 -1.125 0 0 Z " fill="#EECE9D" transform="translate(52,335)"/>
<path d="M0 0 C2.31 0 4.62 0 7 0 C6.01 0.33 5.02 0.66 4 1 C3.28272222 2.64551962 2.61674772 4.31422289 2 6 C1.34 6.66 0.68 7.32 0 8 C0 5.36 0 2.72 0 0 Z " fill="#786976" transform="translate(171,163)"/>
</svg>
